<svg width="169" height="31" viewBox="0 0 169 31" fill="none" xmlns="http://www.w3.org/2000/svg">
<path d="M17.3594 0.644531V5.97266H6.91797V12.0312C7.40495 11.8307 7.99219 11.6732 8.67969 11.5586C9.36719 11.4154 10.0977 11.3438 10.8711 11.3438C12.3034 11.3438 13.6354 11.7018 14.8672 12.418C16.1276 13.1055 17.1445 14.0794 17.918 15.3398C18.6914 16.5716 19.0781 18.0326 19.0781 19.7227C19.0781 21.957 18.5768 23.8477 17.5742 25.3945C16.5716 26.9128 15.2396 28.0729 13.5781 28.875C11.9167 29.6771 10.069 30.0781 8.03516 30.0781C6.11589 30.0781 4.48307 29.7773 3.13672 29.1758C1.79036 28.5456 0.744792 27.9297 0 27.3281V22C1.03125 22.6302 2.11979 23.2604 3.26562 23.8906C4.41146 24.4922 5.72917 24.793 7.21875 24.793C8.9375 24.793 10.3555 24.4349 11.4727 23.7188C12.5898 22.974 13.1484 21.8711 13.1484 20.4102C13.1484 19.0924 12.5755 18.0326 11.4297 17.2305C10.3125 16.4284 8.90885 16.0273 7.21875 16.0273C6.13021 16.0273 5.1276 16.1419 4.21094 16.3711C3.32292 16.6003 2.47786 16.8438 1.67578 17.1016V0.644531H17.3594ZM34.1172 0C36.5807 0 38.6289 0.6875 40.2617 2.0625C41.9232 3.40885 43.1549 5.22786 43.957 7.51953C44.7878 9.78255 45.2031 12.2891 45.2031 15.0391C45.2031 17.7891 44.7878 20.3099 43.957 22.6016C43.1549 24.8646 41.9232 26.6836 40.2617 28.0586C38.6289 29.4049 36.5807 30.0781 34.1172 30.0781C31.6536 30.0781 29.5911 29.4049 27.9297 28.0586C26.2969 26.6836 25.0651 24.8646 24.2344 22.6016C23.4323 20.3099 23.0312 17.7891 23.0312 15.0391C23.0312 12.2891 23.4323 9.78255 24.2344 7.51953C25.0651 5.22786 26.2969 3.40885 27.9297 2.0625C29.5911 0.6875 31.6536 0 34.1172 0ZM34.1172 5.19922C32.9714 5.19922 32.0117 5.64323 31.2383 6.53125C30.4935 7.39062 29.9349 8.5651 29.5625 10.0547C29.1901 11.5156 29.0039 13.1771 29.0039 15.0391C29.0039 16.901 29.1901 18.5768 29.5625 20.0664C29.9349 21.5273 30.4935 22.6875 31.2383 23.5469C32.0117 24.4062 32.9714 24.8359 34.1172 24.8359C35.263 24.8359 36.2083 24.4062 36.9531 23.5469C37.7266 22.6875 38.2995 21.5273 38.6719 20.0664C39.0729 18.5768 39.2734 16.901 39.2734 15.0391C39.2734 13.1771 39.0729 11.5156 38.6719 10.0547C38.2995 8.5651 37.7266 7.39062 36.9531 6.53125C36.2083 5.64323 35.263 5.19922 34.1172 5.19922ZM56.6758 0.644531V13.5352L67.6328 0.644531H75.1953L63.8945 13.2344L76.4844 29.4336H68.6641L59.8125 17.7891L56.6758 21.3125V29.4336H50.7031V0.644531H56.6758Z" fill="#171100"/>
<path d="M95.3835 29.5596C94.5555 29.5596 93.8115 29.4156 93.1515 29.1276C92.5035 28.8276 91.9935 28.4196 91.6215 27.9036C91.2495 27.3756 91.0575 26.7696 91.0455 26.0856H92.7915C92.8515 26.6736 93.0915 27.1716 93.5115 27.5796C93.9435 27.9756 94.5675 28.1736 95.3835 28.1736C96.1635 28.1736 96.7755 27.9816 97.2195 27.5976C97.6755 27.2016 97.9035 26.6976 97.9035 26.0856C97.9035 25.6056 97.7715 25.2156 97.5075 24.9156C97.2435 24.6156 96.9135 24.3876 96.5175 24.2316C96.1215 24.0756 95.5875 23.9076 94.9155 23.7276C94.0875 23.5116 93.4215 23.2956 92.9175 23.0796C92.4255 22.8636 91.9995 22.5276 91.6395 22.0716C91.2915 21.6036 91.1175 20.9796 91.1175 20.1996C91.1175 19.5156 91.2915 18.9096 91.6395 18.3816C91.9875 17.8536 92.4735 17.4456 93.0975 17.1576C93.7335 16.8696 94.4595 16.7256 95.2755 16.7256C96.4515 16.7256 97.4115 17.0196 98.1555 17.6076C98.9115 18.1956 99.3375 18.9756 99.4335 19.9476H97.6335C97.5735 19.4676 97.3215 19.0476 96.8775 18.6876C96.4335 18.3156 95.8455 18.1296 95.1135 18.1296C94.4295 18.1296 93.8715 18.3096 93.4395 18.6696C93.0075 19.0176 92.7915 19.5096 92.7915 20.1456C92.7915 20.6016 92.9175 20.9736 93.1695 21.2616C93.4335 21.5496 93.7515 21.7716 94.1235 21.9276C94.5075 22.0716 95.0415 22.2396 95.7255 22.4316C96.5535 22.6596 97.2195 22.8876 97.7235 23.1156C98.2275 23.3316 98.6595 23.6736 99.0195 24.1416C99.3795 24.5976 99.5595 25.2216 99.5595 26.0136C99.5595 26.6256 99.3975 27.2016 99.0735 27.7416C98.7495 28.2816 98.2695 28.7196 97.6335 29.0556C96.9975 29.3916 96.2475 29.5596 95.3835 29.5596ZM103.968 20.9196V26.7336C103.968 27.2136 104.07 27.5556 104.274 27.7596C104.478 27.9516 104.832 28.0476 105.336 28.0476H106.542V29.4336H105.066C104.154 29.4336 103.47 29.2236 103.014 28.8036C102.558 28.3836 102.33 27.6936 102.33 26.7336V20.9196H101.052V19.5696H102.33V17.0856H103.968V19.5696H106.542V20.9196H103.968ZM117.275 19.5696V29.4336H115.637V27.9756C115.325 28.4796 114.887 28.8756 114.323 29.1636C113.771 29.4396 113.159 29.5776 112.487 29.5776C111.719 29.5776 111.029 29.4216 110.417 29.1096C109.805 28.7856 109.319 28.3056 108.959 27.6696C108.611 27.0336 108.437 26.2596 108.437 25.3476V19.5696H110.057V25.1316C110.057 26.1036 110.303 26.8536 110.795 27.3816C111.287 27.8976 111.959 28.1556 112.811 28.1556C113.687 28.1556 114.377 27.8856 114.881 27.3456C115.385 26.8056 115.637 26.0196 115.637 24.9876V19.5696H117.275ZM119.428 24.4656C119.428 23.4576 119.632 22.5756 120.04 21.8196C120.448 21.0516 121.006 20.4576 121.714 20.0376C122.434 19.6176 123.238 19.4076 124.126 19.4076C124.894 19.4076 125.608 19.5876 126.268 19.9476C126.928 20.2956 127.432 20.7576 127.78 21.3336V16.1136H129.436V29.4336H127.78V27.5796C127.456 28.1676 126.976 28.6536 126.34 29.0376C125.704 29.4096 124.96 29.5956 124.108 29.5956C123.232 29.5956 122.434 29.3796 121.714 28.9476C121.006 28.5156 120.448 27.9096 120.04 27.1296C119.632 26.3496 119.428 25.4616 119.428 24.4656ZM127.78 24.4836C127.78 23.7396 127.63 23.0916 127.33 22.5396C127.03 21.9876 126.622 21.5676 126.106 21.2796C125.602 20.9796 125.044 20.8296 124.432 20.8296C123.82 20.8296 123.262 20.9736 122.758 21.2616C122.254 21.5496 121.852 21.9696 121.552 22.5216C121.252 23.0736 121.102 23.7216 121.102 24.4656C121.102 25.2216 121.252 25.8816 121.552 26.4456C121.852 26.9976 122.254 27.4236 122.758 27.7236C123.262 28.0116 123.82 28.1556 124.432 28.1556C125.044 28.1556 125.602 28.0116 126.106 27.7236C126.622 27.4236 127.03 26.9976 127.33 26.4456C127.63 25.8816 127.78 25.2276 127.78 24.4836ZM141.204 24.1236C141.204 24.4356 141.186 24.7656 141.15 25.1136H133.266C133.326 26.0856 133.656 26.8476 134.256 27.3996C134.868 27.9396 135.606 28.2096 136.47 28.2096C137.178 28.2096 137.766 28.0476 138.234 27.7236C138.714 27.3876 139.05 26.9436 139.242 26.3916H141.006C140.742 27.3396 140.214 28.1136 139.422 28.7136C138.63 29.3016 137.646 29.5956 136.47 29.5956C135.534 29.5956 134.694 29.3856 133.95 28.9656C133.218 28.5456 132.642 27.9516 132.222 27.1836C131.802 26.4036 131.592 25.5036 131.592 24.4836C131.592 23.4636 131.796 22.5696 132.204 21.8016C132.612 21.0336 133.182 20.4456 133.914 20.0376C134.658 19.6176 135.51 19.4076 136.47 19.4076C137.406 19.4076 138.234 19.6116 138.954 20.0196C139.674 20.4276 140.226 20.9916 140.61 21.7116C141.006 22.4196 141.204 23.2236 141.204 24.1236ZM139.512 23.7816C139.512 23.1576 139.374 22.6236 139.098 22.1796C138.822 21.7236 138.444 21.3816 137.964 21.1536C137.496 20.9136 136.974 20.7936 136.398 20.7936C135.57 20.7936 134.862 21.0576 134.274 21.5856C133.698 22.1136 133.368 22.8456 133.284 23.7816H139.512ZM148.172 19.3896C149.372 19.3896 150.344 19.7556 151.088 20.4876C151.832 21.2076 152.204 22.2516 152.204 23.6196V29.4336H150.584V23.8536C150.584 22.8696 150.338 22.1196 149.846 21.6036C149.354 21.0756 148.682 20.8116 147.83 20.8116C146.966 20.8116 146.276 21.0816 145.76 21.6216C145.256 22.1616 145.004 22.9476 145.004 23.9796V29.4336H143.366V19.5696H145.004V20.9736C145.328 20.4696 145.766 20.0796 146.318 19.8036C146.882 19.5276 147.5 19.3896 148.172 19.3896ZM156.878 20.9196V26.7336C156.878 27.2136 156.98 27.5556 157.184 27.7596C157.388 27.9516 157.742 28.0476 158.246 28.0476H159.452V29.4336H157.976C157.064 29.4336 156.38 29.2236 155.924 28.8036C155.468 28.3836 155.24 27.6936 155.24 26.7336V20.9196H153.962V19.5696H155.24V17.0856H156.878V19.5696H159.452V20.9196H156.878ZM164.929 29.5956C164.173 29.5956 163.495 29.4696 162.895 29.2176C162.295 28.9536 161.821 28.5936 161.473 28.1376C161.125 27.6696 160.933 27.1356 160.897 26.5356H162.589C162.637 27.0276 162.865 27.4296 163.273 27.7416C163.693 28.0536 164.239 28.2096 164.911 28.2096C165.535 28.2096 166.027 28.0716 166.387 27.7956C166.747 27.5196 166.927 27.1716 166.927 26.7516C166.927 26.3196 166.735 26.0016 166.351 25.7976C165.967 25.5816 165.373 25.3716 164.569 25.1676C163.837 24.9756 163.237 24.7836 162.769 24.5916C162.313 24.3876 161.917 24.0936 161.581 23.7096C161.257 23.3136 161.095 22.7976 161.095 22.1616C161.095 21.6576 161.245 21.1956 161.545 20.7756C161.845 20.3556 162.271 20.0256 162.823 19.7856C163.375 19.5336 164.005 19.4076 164.713 19.4076C165.805 19.4076 166.687 19.6836 167.359 20.2356C168.031 20.7876 168.391 21.5436 168.439 22.5036H166.801C166.765 21.9876 166.555 21.5736 166.171 21.2616C165.799 20.9496 165.295 20.7936 164.659 20.7936C164.071 20.7936 163.603 20.9196 163.255 21.1716C162.907 21.4236 162.733 21.7536 162.733 22.1616C162.733 22.4856 162.835 22.7556 163.039 22.9716C163.255 23.1756 163.519 23.3436 163.831 23.4756C164.155 23.5956 164.599 23.7336 165.163 23.8896C165.871 24.0816 166.447 24.2736 166.891 24.4656C167.335 24.6456 167.713 24.9216 168.025 25.2936C168.349 25.6656 168.517 26.1516 168.529 26.7516C168.529 27.2916 168.379 27.7776 168.079 28.2096C167.779 28.6416 167.353 28.9836 166.801 29.2356C166.261 29.4756 165.637 29.5956 164.929 29.5956Z" fill="#5F5B53"/>
</svg>
