<svg width="156" height="31" viewBox="0 0 156 31" fill="none" xmlns="http://www.w3.org/2000/svg">
<path d="M20.4102 0.644531V3.09375C18.8633 5.67188 17.474 8.04948 16.2422 10.2266C15.0104 12.4036 13.9505 14.5091 13.0625 16.543C12.2031 18.5482 11.5299 20.5964 11.043 22.6875C10.5846 24.7786 10.3555 27.0273 10.3555 29.4336H3.48047C3.48047 26.5977 3.95312 23.862 4.89844 21.2266C5.84375 18.5625 7.03255 15.9701 8.46484 13.4492C9.89714 10.8997 11.3438 8.40755 12.8047 5.97266H0V0.644531H20.4102ZM34.4609 0C36.9245 0 38.9727 0.6875 40.6055 2.0625C42.2669 3.40885 43.4987 5.22786 44.3008 7.51953C45.1315 9.78255 45.5469 12.2891 45.5469 15.0391C45.5469 17.7891 45.1315 20.3099 44.3008 22.6016C43.4987 24.8646 42.2669 26.6836 40.6055 28.0586C38.9727 29.4049 36.9245 30.0781 34.4609 30.0781C31.9974 30.0781 29.9349 29.4049 28.2734 28.0586C26.6406 26.6836 25.4089 24.8646 24.5781 22.6016C23.776 20.3099 23.375 17.7891 23.375 15.0391C23.375 12.2891 23.776 9.78255 24.5781 7.51953C25.4089 5.22786 26.6406 3.40885 28.2734 2.0625C29.9349 0.6875 31.9974 0 34.4609 0ZM34.4609 5.19922C33.3151 5.19922 32.3555 5.64323 31.582 6.53125C30.8372 7.39062 30.2786 8.5651 29.9062 10.0547C29.5339 11.5156 29.3477 13.1771 29.3477 15.0391C29.3477 16.901 29.5339 18.5768 29.9062 20.0664C30.2786 21.5273 30.8372 22.6875 31.582 23.5469C32.3555 24.4062 33.3151 24.8359 34.4609 24.8359C35.6068 24.8359 36.5521 24.4062 37.2969 23.5469C38.0703 22.6875 38.6432 21.5273 39.0156 20.0664C39.4167 18.5768 39.6172 16.901 39.6172 15.0391C39.6172 13.1771 39.4167 11.5156 39.0156 10.0547C38.6432 8.5651 38.0703 7.39062 37.2969 6.53125C36.5521 5.64323 35.6068 5.19922 34.4609 5.19922ZM66.9453 13.4062V18.5625H61.1445V24.4062H55.9883V18.5625H50.1875V13.4062H55.9883V7.60547H61.1445V13.4062H66.9453Z" fill="#171100"/>
<path d="M84.0474 23.1516C84.0474 21.9276 84.3234 20.8296 84.8754 19.8576C85.4274 18.8736 86.1774 18.1056 87.1254 17.5536C88.0854 17.0016 89.1474 16.7256 90.3114 16.7256C91.6794 16.7256 92.8734 17.0556 93.8934 17.7156C94.9134 18.3756 95.6574 19.3116 96.1254 20.5236H94.1634C93.8154 19.7676 93.3114 19.1856 92.6514 18.7776C92.0034 18.3696 91.2234 18.1656 90.3114 18.1656C89.4354 18.1656 88.6494 18.3696 87.9534 18.7776C87.2574 19.1856 86.7114 19.7676 86.3154 20.5236C85.9194 21.2676 85.7214 22.1436 85.7214 23.1516C85.7214 24.1476 85.9194 25.0236 86.3154 25.7796C86.7114 26.5236 87.2574 27.0996 87.9534 27.5076C88.6494 27.9156 89.4354 28.1196 90.3114 28.1196C91.2234 28.1196 92.0034 27.9216 92.6514 27.5256C93.3114 27.1176 93.8154 26.5356 94.1634 25.7796H96.1254C95.6574 26.9796 94.9134 27.9096 93.8934 28.5696C92.8734 29.2176 91.6794 29.5416 90.3114 29.5416C89.1474 29.5416 88.0854 29.2716 87.1254 28.7316C86.1774 28.1796 85.4274 27.4176 84.8754 26.4456C84.3234 25.4736 84.0474 24.3756 84.0474 23.1516ZM102.866 29.5956C101.942 29.5956 101.102 29.3856 100.346 28.9656C99.6017 28.5456 99.0137 27.9516 98.5817 27.1836C98.1617 26.4036 97.9517 25.5036 97.9517 24.4836C97.9517 23.4756 98.1677 22.5876 98.5997 21.8196C99.0437 21.0396 99.6437 20.4456 100.4 20.0376C101.156 19.6176 102.002 19.4076 102.938 19.4076C103.874 19.4076 104.72 19.6176 105.476 20.0376C106.232 20.4456 106.826 21.0336 107.258 21.8016C107.702 22.5696 107.924 23.4636 107.924 24.4836C107.924 25.5036 107.696 26.4036 107.24 27.1836C106.796 27.9516 106.19 28.5456 105.422 28.9656C104.654 29.3856 103.802 29.5956 102.866 29.5956ZM102.866 28.1556C103.454 28.1556 104.006 28.0176 104.522 27.7416C105.038 27.4656 105.452 27.0516 105.764 26.4996C106.088 25.9476 106.25 25.2756 106.25 24.4836C106.25 23.6916 106.094 23.0196 105.782 22.4676C105.47 21.9156 105.062 21.5076 104.558 21.2436C104.054 20.9676 103.508 20.8296 102.92 20.8296C102.32 20.8296 101.768 20.9676 101.264 21.2436C100.772 21.5076 100.376 21.9156 100.076 22.4676C99.7757 23.0196 99.6257 23.6916 99.6257 24.4836C99.6257 25.2876 99.7697 25.9656 100.058 26.5176C100.358 27.0696 100.754 27.4836 101.246 27.7596C101.738 28.0236 102.278 28.1556 102.866 28.1556ZM118.825 19.5696V29.4336H117.187V27.9756C116.875 28.4796 116.437 28.8756 115.873 29.1636C115.321 29.4396 114.709 29.5776 114.037 29.5776C113.269 29.5776 112.579 29.4216 111.967 29.1096C111.355 28.7856 110.869 28.3056 110.509 27.6696C110.161 27.0336 109.987 26.2596 109.987 25.3476V19.5696H111.607V25.1316C111.607 26.1036 111.853 26.8536 112.345 27.3816C112.837 27.8976 113.509 28.1556 114.361 28.1556C115.237 28.1556 115.927 27.8856 116.431 27.3456C116.935 26.8056 117.187 26.0196 117.187 24.9876V19.5696H118.825ZM123.229 21.1716C123.517 20.6076 123.925 20.1696 124.453 19.8576C124.993 19.5456 125.647 19.3896 126.415 19.3896V21.0816H125.983C124.147 21.0816 123.229 22.0776 123.229 24.0696V29.4336H121.591V19.5696H123.229V21.1716ZM131.798 29.5956C131.042 29.5956 130.364 29.4696 129.764 29.2176C129.164 28.9536 128.69 28.5936 128.342 28.1376C127.994 27.6696 127.802 27.1356 127.766 26.5356H129.458C129.506 27.0276 129.734 27.4296 130.142 27.7416C130.562 28.0536 131.108 28.2096 131.78 28.2096C132.404 28.2096 132.896 28.0716 133.256 27.7956C133.616 27.5196 133.796 27.1716 133.796 26.7516C133.796 26.3196 133.604 26.0016 133.22 25.7976C132.836 25.5816 132.242 25.3716 131.438 25.1676C130.706 24.9756 130.106 24.7836 129.638 24.5916C129.182 24.3876 128.786 24.0936 128.45 23.7096C128.126 23.3136 127.964 22.7976 127.964 22.1616C127.964 21.6576 128.114 21.1956 128.414 20.7756C128.714 20.3556 129.14 20.0256 129.692 19.7856C130.244 19.5336 130.874 19.4076 131.582 19.4076C132.674 19.4076 133.556 19.6836 134.228 20.2356C134.9 20.7876 135.26 21.5436 135.308 22.5036H133.67C133.634 21.9876 133.424 21.5736 133.04 21.2616C132.668 20.9496 132.164 20.7936 131.528 20.7936C130.94 20.7936 130.472 20.9196 130.124 21.1716C129.776 21.4236 129.602 21.7536 129.602 22.1616C129.602 22.4856 129.704 22.7556 129.908 22.9716C130.124 23.1756 130.388 23.3436 130.7 23.4756C131.024 23.5956 131.468 23.7336 132.032 23.8896C132.74 24.0816 133.316 24.2736 133.76 24.4656C134.204 24.6456 134.582 24.9216 134.894 25.2936C135.218 25.6656 135.386 26.1516 135.398 26.7516C135.398 27.2916 135.248 27.7776 134.948 28.2096C134.648 28.6416 134.222 28.9836 133.67 29.2356C133.13 29.4756 132.506 29.5956 131.798 29.5956ZM146.71 24.1236C146.71 24.4356 146.692 24.7656 146.656 25.1136H138.772C138.832 26.0856 139.162 26.8476 139.762 27.3996C140.374 27.9396 141.112 28.2096 141.976 28.2096C142.684 28.2096 143.272 28.0476 143.74 27.7236C144.22 27.3876 144.556 26.9436 144.748 26.3916H146.512C146.248 27.3396 145.72 28.1136 144.928 28.7136C144.136 29.3016 143.152 29.5956 141.976 29.5956C141.04 29.5956 140.2 29.3856 139.456 28.9656C138.724 28.5456 138.148 27.9516 137.728 27.1836C137.308 26.4036 137.098 25.5036 137.098 24.4836C137.098 23.4636 137.302 22.5696 137.71 21.8016C138.118 21.0336 138.688 20.4456 139.42 20.0376C140.164 19.6176 141.016 19.4076 141.976 19.4076C142.912 19.4076 143.74 19.6116 144.46 20.0196C145.18 20.4276 145.732 20.9916 146.116 21.7116C146.512 22.4196 146.71 23.2236 146.71 24.1236ZM145.018 23.7816C145.018 23.1576 144.88 22.6236 144.604 22.1796C144.328 21.7236 143.95 21.3816 143.47 21.1536C143.002 20.9136 142.48 20.7936 141.904 20.7936C141.076 20.7936 140.368 21.0576 139.78 21.5856C139.204 22.1136 138.874 22.8456 138.79 23.7816H145.018ZM152.364 29.5956C151.608 29.5956 150.93 29.4696 150.33 29.2176C149.73 28.9536 149.256 28.5936 148.908 28.1376C148.56 27.6696 148.368 27.1356 148.332 26.5356H150.024C150.072 27.0276 150.3 27.4296 150.708 27.7416C151.128 28.0536 151.674 28.2096 152.346 28.2096C152.97 28.2096 153.462 28.0716 153.822 27.7956C154.182 27.5196 154.362 27.1716 154.362 26.7516C154.362 26.3196 154.17 26.0016 153.786 25.7976C153.402 25.5816 152.808 25.3716 152.004 25.1676C151.272 24.9756 150.672 24.7836 150.204 24.5916C149.748 24.3876 149.352 24.0936 149.016 23.7096C148.692 23.3136 148.53 22.7976 148.53 22.1616C148.53 21.6576 148.68 21.1956 148.98 20.7756C149.28 20.3556 149.706 20.0256 150.258 19.7856C150.81 19.5336 151.44 19.4076 152.148 19.4076C153.24 19.4076 154.122 19.6836 154.794 20.2356C155.466 20.7876 155.826 21.5436 155.874 22.5036H154.236C154.2 21.9876 153.99 21.5736 153.606 21.2616C153.234 20.9496 152.73 20.7936 152.094 20.7936C151.506 20.7936 151.038 20.9196 150.69 21.1716C150.342 21.4236 150.168 21.7536 150.168 22.1616C150.168 22.4856 150.27 22.7556 150.474 22.9716C150.69 23.1756 150.954 23.3436 151.266 23.4756C151.59 23.5956 152.034 23.7336 152.598 23.8896C153.306 24.0816 153.882 24.2736 154.326 24.4656C154.77 24.6456 155.148 24.9216 155.46 25.2936C155.784 25.6656 155.952 26.1516 155.964 26.7516C155.964 27.2916 155.814 27.7776 155.514 28.2096C155.214 28.6416 154.788 28.9836 154.236 29.2356C153.696 29.4756 153.072 29.5956 152.364 29.5956Z" fill="#5F5B53"/>
</svg>
